# Blender v2.79 (sub 0) OBJ File: 'Pirate111.blend'
# www.blender.org
o grass_Plane.017
v -0.898299 -0.653828 5.104954
v -0.205670 -0.653828 5.701857
v -0.898299 0.814371 5.104954
v -0.205670 0.814371 5.701857
v -0.523012 -0.747450 4.304728
v -1.136295 -0.992984 4.352940
v -0.900396 0.096267 3.801089
v -1.513679 -0.149267 3.849301
v -3.041563 -0.663544 4.637082
v -2.727397 -0.729988 5.025202
v -2.618182 -0.025548 4.403596
v -2.304017 -0.091992 4.791716
v -2.969402 -0.525970 4.698798
v -2.466212 -0.775925 5.398711
v -2.056075 0.533614 4.420580
v -1.552885 0.283658 5.120493
v -2.005527 -1.014668 5.256804
v -2.207288 -0.834277 4.750753
v -1.857136 -0.150014 5.505862
v -2.058897 0.030377 4.999812
v -0.714364 -0.580796 5.472669
v -0.337003 -0.519344 5.801276
v -0.537396 0.125002 5.137455
v -0.160034 0.186453 5.466062
v -0.446296 -0.618919 5.510055
v 0.145411 -0.478439 5.945055
v -0.419269 0.500261 5.111863
v 0.172437 0.640740 5.546864
v -1.145013 -0.858680 5.366546
v -0.313343 -0.637320 5.659091
v -1.218740 0.105918 4.782789
v -0.387069 0.327279 5.075335
v -1.238596 -0.006512 5.092302
v -0.406926 0.214848 5.384848
v -0.200258 -0.621869 4.097805
v -1.035781 -0.856778 3.660831
v -0.702338 0.827136 4.278857
v -1.537861 0.592227 3.841883
v -0.695660 -0.733429 4.093944
v -0.275313 -0.438679 4.737868
v -0.467476 0.375442 3.437413
v -0.047128 0.670191 4.081337
v -0.593648 -1.076282 3.965517
v -0.151636 -0.857223 5.082878
v -0.190988 0.750609 3.448069
v 0.251023 0.969667 4.565429
v -0.483232 -0.972725 4.697888
v -0.931682 -1.204399 3.858741
v -0.951597 0.150285 4.663825
v -1.400048 -0.081389 3.824678
v -0.695716 -0.044865 4.512986
v -1.144167 -0.276539 3.673839
v -2.851583 -1.371137 4.613056
v -2.174770 -0.839693 3.402972
v -4.119847 -0.032598 4.532504
v -3.443033 0.498846 3.322421
v -3.606574 -0.111066 4.676751
v -2.929760 0.420378 3.466667
v -2.735977 -0.639630 4.463720
v -1.633055 -0.527309 3.951077
v -2.947984 1.250910 3.454564
v -1.845062 1.363231 2.941921
v -2.957433 0.598161 4.078652
v -2.845841 -0.009661 4.365382
v -1.742919 0.102660 3.852739
v -1.854511 0.710482 3.566009
v -2.460840 -1.011755 4.207197
v -1.433113 -0.782277 4.826044
v -2.476596 0.816460 3.555432
v -1.448869 1.045939 4.174280
v -3.220160 -0.608598 4.348942
v -2.384743 -0.608598 3.979179
v -3.220160 0.858388 4.348942
v -2.384743 0.858388 3.979179
v -3.125475 -0.733429 4.537267
v -2.400595 -0.438679 4.793937
v -3.342566 0.375442 3.876985
v -2.617686 0.670191 4.133655
vt 0.197211 0.093979
vt 0.348876 0.061447
vt 0.419017 0.388443
vt 0.267352 0.420975
vt 0.197211 0.093979
vt 0.348876 0.061447
vt 0.419017 0.388443
vt 0.267352 0.420975
vt -0.007026 0.080346
vt 0.196909 0.036601
vt 0.291224 0.476295
vt 0.087288 0.520039
vt -0.007026 0.080346
vt 0.196909 0.036601
vt 0.291224 0.476295
vt 0.087288 0.520039
vt -0.007026 0.080346
vt 0.196909 0.036601
vt 0.291224 0.476295
vt 0.087288 0.520039
vt -0.007026 0.080346
vt 0.196909 0.036601
vt 0.291224 0.476295
vt 0.087288 0.520039
vt -0.007026 0.080346
vt 0.196909 0.036601
vt 0.291224 0.476295
vt 0.087288 0.520039
vt -0.007026 0.080346
vt 0.196909 0.036601
vt 0.291224 0.476295
vt 0.087288 0.520039
vt 0.040131 0.300193
vt 0.244066 0.256448
vt 0.291224 0.476295
vt 0.087288 0.520039
vt -0.007026 0.080346
vt 0.196909 0.036601
vt -0.007026 0.080346
vt 0.196909 0.036601
vt 0.291224 0.476295
vt 0.087288 0.520039
vt -0.007026 0.080346
vt 0.196909 0.036601
vt 0.291224 0.476295
vt 0.087288 0.520039
vt -0.007026 0.080346
vt 0.196909 0.036601
vt 0.291224 0.476295
vt 0.087288 0.520039
vt 0.040131 0.300193
vt 0.244066 0.256448
vt 0.291224 0.476295
vt 0.087288 0.520039
vt -0.007026 0.080346
vt 0.196909 0.036601
vt 0.040131 0.300193
vt 0.244066 0.256448
vt 0.291224 0.476295
vt 0.087288 0.520039
vt -0.007026 0.080346
vt 0.196909 0.036601
vt 0.055850 0.373475
vt 0.259785 0.329730
vt 0.291224 0.476295
vt 0.087288 0.520039
vt -0.007026 0.080346
vt 0.196909 0.036601
vt 0.228347 0.183166
vt 0.024412 0.226910
vt -0.007026 0.080346
vt 0.196909 0.036601
vt 0.291224 0.476295
vt 0.087288 0.520039
vt -0.007026 0.080346
vt 0.196909 0.036601
vt 0.291224 0.476295
vt 0.087288 0.520039
vn -0.6528 0.0000 0.7575
vn 0.4047 0.0000 0.9144
vn 0.1190 -0.4691 -0.8751
vn -0.5756 0.5894 0.5668
vn -0.5250 0.6087 0.5948
vn 0.9219 -0.0475 -0.3845
vn -0.6252 0.4572 0.6325
vn -0.6109 0.2784 0.7411
vn -0.3428 0.8898 0.3012
vn -0.3792 0.2455 0.8922
vn 0.3936 0.2470 -0.8855
vn -0.8421 0.3924 0.3701
vn -0.9088 0.2863 0.3034
vn 0.3752 0.8224 -0.4276
vn 0.8657 0.1005 -0.4904
vn 0.0232 0.9105 0.4128
vn 0.7144 0.3990 0.5748
vn 0.2577 0.6658 0.7002
vn 0.3947 0.2085 0.8948
vn 0.3378 0.4516 0.8258
vn -0.5403 0.2784 0.7941
vn -0.4447 0.3924 0.8052
s off
f 1/1/1 2/2/1 4/3/1 3/4/1
f 71/5/2 72/6/2 74/7/2 73/8/2
f 5/9/3 6/10/3 8/11/3 7/12/3
f 9/13/4 10/14/4 12/15/4 11/16/4
f 13/17/5 14/18/5 16/19/5 15/20/5
f 17/21/6 18/22/6 20/23/6 19/24/6
f 21/25/7 22/26/7 24/27/7 23/28/7
f 25/29/8 26/30/8 28/31/8 27/32/8
f 33/33/9 34/34/9 32/35/9 31/36/9
f 29/37/10 30/38/10 34/34/10 33/33/10
f 35/39/11 36/40/11 38/41/11 37/42/11
f 39/43/12 40/44/12 42/45/12 41/46/12
f 43/47/13 44/48/13 46/49/13 45/50/13
f 51/51/14 52/52/14 50/53/14 49/54/14
f 47/55/15 48/56/15 52/52/15 51/51/15
f 57/57/16 58/58/16 56/59/16 55/60/16
f 53/61/17 54/62/17 58/58/17 57/57/17
f 63/63/18 66/64/18 62/65/18 61/66/18
f 59/67/19 60/68/19 65/69/19 64/70/19
f 64/70/20 65/69/20 66/64/20 63/63/20
f 67/71/21 68/72/21 70/73/21 69/74/21
f 75/75/22 76/76/22 78/77/22 77/78/22
